<svg width="54" height="54" viewBox="0 0 54 54" fill="none" xmlns="http://www.w3.org/2000/svg">
<rect x="2.69992" y="2.70001" width="48.6" height="48.6" rx="20" fill="#3492EB"/>
<path d="M28.7885 10.26V26.938C28.7885 27.9602 27.9601 28.7886 26.9379 28.7886H10.2599C10.6065 31.9336 11.8347 34.9167 13.8029 37.3941C15.7711 39.8715 18.3992 41.7423 21.3845 42.791C24.3697 43.8397 27.5905 44.0235 30.6756 43.3213C33.7608 42.6191 36.5848 41.0595 38.8221 38.8222C41.0594 36.5849 42.619 33.7609 43.3212 30.6757C44.0234 27.5906 43.8396 24.3698 42.7909 21.3846C41.7422 18.3993 39.8714 15.7712 37.394 13.803C34.9166 11.8347 31.9335 10.6066 28.7885 10.26V10.26ZM25.0983 10.26C21.3071 10.6796 17.7719 12.3778 15.0748 15.0749C12.3777 17.772 10.6795 21.3072 10.2599 25.0984H25.0983V10.26Z" fill="#0D6BC4"/>
</svg>
