<svg width="100" height="100" viewBox="0 0 100 100" fill="none" xmlns="http://www.w3.org/2000/svg">
<rect x="5" y="5" width="90" height="90" rx="20" fill="#3492EB"/>
<path d="M53.3122 19V49.8851C53.3122 51.7781 51.7781 53.3122 49.8851 53.3122H19C19.6418 59.1363 21.9162 64.6606 25.561 69.2483C29.2059 73.8361 34.0728 77.3006 39.601 79.2425C45.1292 81.1845 51.0936 81.525 56.8069 80.2246C62.5201 78.9243 67.7497 76.0361 71.8929 71.8929C76.0361 67.7497 78.9243 62.5201 80.2246 56.8069C81.525 51.0936 81.1845 45.1292 79.2425 39.601C77.3006 34.0728 73.8361 29.2059 69.2483 25.561C64.6606 21.9162 59.1363 19.6418 53.3122 19V19ZM46.4785 19C39.4578 19.777 32.9111 22.9218 27.9164 27.9164C22.9218 32.9111 19.777 39.4578 19 46.4785H46.4785V19Z" fill="#0D6BC4"/>
</svg>
