<svg width="93" height="93" viewBox="0 0 93 93" fill="none" xmlns="http://www.w3.org/2000/svg">
<g clip-path="url(#clip0_5_2)">
<rect x="0.235352" y="18.7488" width="91.8323" height="50.2401" rx="10" transform="rotate(0.168511 0.235352 18.7488)" fill="#0D6BC4"/>
<path d="M85.6238 18.6163L6.64252 18.3864C3.10213 18.3761 0.205401 21.2561 0.195099 24.7964L0.0721631 67.0423C0.0618872 70.5735 2.94178 73.4794 6.47758 73.4897L85.4589 73.7195C88.9947 73.7298 91.896 70.8407 91.9063 67.3095L92.0292 25.0637C92.0441 21.5233 89.155 18.6266 85.6238 18.6163ZM50.685 32.2905C50.6924 29.7545 52.7543 27.7046 55.2903 27.712V27.712C57.8264 27.7193 59.8763 29.7812 59.8689 32.3173V32.3173C59.8615 34.8533 57.7997 36.9032 55.2636 36.8958V36.8958C52.7275 36.8885 50.6776 34.8266 50.685 32.2905V32.2905ZM59.8422 41.5011C62.3782 41.5085 64.4281 43.5704 64.4207 46.1064V46.1064C64.4134 48.6425 62.3515 50.6924 59.8154 50.685V50.685C57.2794 50.6776 55.2295 48.6158 55.2369 46.0797V46.0797C55.2443 43.5437 57.3061 41.4938 59.8422 41.5011V41.5011ZM36.9092 32.2504C36.9166 29.7144 38.9785 27.6645 41.5145 27.6719V27.6719C44.0506 27.6793 46.1005 29.7411 46.0931 32.2772V32.2772C46.0857 34.8132 44.0238 36.8631 41.4878 36.8557V36.8557C38.9517 36.8484 36.9018 34.7865 36.9092 32.2504V32.2504ZM46.0664 41.461C48.6024 41.4684 50.6523 43.5303 50.6449 46.0663V46.0663C50.6376 48.6024 48.5757 50.6523 46.0396 50.6449V50.6449C43.5036 50.6375 41.4537 48.5757 41.4611 46.0396V46.0396C41.4684 43.5036 43.5303 41.4537 46.0664 41.461V41.461ZM23.1334 32.2104C23.1408 29.6743 25.2026 27.6244 27.7387 27.6318V27.6318C30.2748 27.6392 32.3247 29.701 32.3173 32.2371V32.2371C32.3099 34.7731 30.248 36.823 27.712 36.8157V36.8157C25.1759 36.8083 23.126 34.7464 23.1334 32.2104V32.2104ZM32.2906 41.421C34.8266 41.4283 36.8765 43.4902 36.8691 46.0263V46.0263C36.8617 48.5623 34.7999 50.6122 32.2638 50.6048V50.6048C29.7278 50.5975 27.6779 48.5356 27.6853 45.9995V45.9995C27.6926 43.4635 29.7545 41.4136 32.2906 41.421V41.421ZM9.35759 32.1703C9.36497 29.6342 11.4268 27.5843 13.9629 27.5917V27.5917C16.4989 27.5991 18.5488 29.6609 18.5415 32.197V32.197C18.5341 34.7331 16.4722 36.783 13.9362 36.7756V36.7756C11.4001 36.7682 9.35021 34.7063 9.35759 32.1703V32.1703ZM18.5147 41.3809C21.0508 41.3883 23.1007 43.4501 23.0933 45.9862V45.9862C23.0859 48.5222 21.0241 50.5721 18.488 50.5647V50.5647C15.952 50.5574 13.9021 48.4955 13.9094 45.9594V45.9594C13.9168 43.4234 15.9787 41.3735 18.5147 41.3809V41.3809ZM18.4613 59.7486C18.4539 62.2847 16.392 64.3346 13.856 64.3272V64.3272C11.3199 64.3198 9.27004 62.2579 9.27742 59.7219V59.7219C9.2848 57.1858 11.3467 55.1359 13.8827 55.1433V55.1433C16.4188 55.1507 18.4687 57.2126 18.4613 59.7486V59.7486ZM68.9726 59.8956C68.9652 62.4317 66.9034 64.4816 64.3673 64.4742L27.6318 64.3673C25.0957 64.3599 23.0458 62.298 23.0532 59.762V59.762C23.0606 57.2259 25.1225 55.176 27.6585 55.1834L64.394 55.2903C66.9301 55.2977 68.98 57.3595 68.9726 59.8956V59.8956ZM82.7484 59.9357C82.741 62.4717 80.6792 64.5216 78.1431 64.5143V64.5143C75.607 64.5069 73.5572 62.445 73.5645 59.909V59.909C73.5719 57.3729 75.6338 55.323 78.1698 55.3304V55.3304C80.7059 55.3378 82.7558 57.3996 82.7484 59.9357V59.9357ZM73.5913 50.7251C71.0552 50.7177 69.0053 48.6559 69.0127 46.1198V46.1198C69.0201 43.5837 71.0819 41.5338 73.618 41.5412V41.5412C76.154 41.5486 78.2039 43.6105 78.1966 46.1465V46.1465C78.1892 48.6826 76.1273 50.7325 73.5913 50.7251V50.7251ZM82.8286 32.3841C82.8212 34.9201 80.7593 36.97 78.2233 36.9626L69.0394 36.9359C66.5034 36.9285 64.4535 34.8667 64.4608 32.3306V32.3306C64.4682 29.7946 66.5301 27.7447 69.0661 27.752L78.25 27.7788C80.7861 27.7862 82.836 29.848 82.8286 32.3841V32.3841Z" fill="#3492EB"/>
</g>
<defs>
<clipPath id="clip0_5_2">
<rect width="91.8391" height="91.8391" fill="white" transform="translate(0.267273) rotate(0.166731)"/>
</clipPath>
</defs>
</svg>
