<svg width="68" height="68" viewBox="0 0 68 68" fill="none" xmlns="http://www.w3.org/2000/svg">
<g clip-path="url(#clip0_7_58)">
<rect width="68" height="68" rx="10" fill="#3492EB"/>
<path d="M48.96 30.6H29.24C27.3632 30.6 27.2 32.1198 27.2 34C27.2 35.8802 27.3632 37.4 29.24 37.4H48.96C50.8368 37.4 51 35.8802 51 34C51 32.1198 50.8368 30.6 48.96 30.6V30.6ZM55.76 47.6H29.24C27.3632 47.6 27.2 49.1198 27.2 51C27.2 52.8802 27.3632 54.4 29.24 54.4H55.76C57.6368 54.4 57.8 52.8802 57.8 51C57.8 49.1198 57.6368 47.6 55.76 47.6ZM29.24 20.4H55.76C57.6368 20.4 57.8 18.8802 57.8 17C57.8 15.1198 57.6368 13.6 55.76 13.6H29.24C27.3632 13.6 27.2 15.1198 27.2 17C27.2 18.8802 27.3632 20.4 29.24 20.4ZM18.36 30.6H12.24C10.3632 30.6 10.2 32.1198 10.2 34C10.2 35.8802 10.3632 37.4 12.24 37.4H18.36C20.2368 37.4 20.4 35.8802 20.4 34C20.4 32.1198 20.2368 30.6 18.36 30.6ZM18.36 47.6H12.24C10.3632 47.6 10.2 49.1198 10.2 51C10.2 52.8802 10.3632 54.4 12.24 54.4H18.36C20.2368 54.4 20.4 52.8802 20.4 51C20.4 49.1198 20.2368 47.6 18.36 47.6ZM18.36 13.6H12.24C10.3632 13.6 10.2 15.1198 10.2 17C10.2 18.8802 10.3632 20.4 12.24 20.4H18.36C20.2368 20.4 20.4 18.8802 20.4 17C20.4 15.1198 20.2368 13.6 18.36 13.6Z" fill="#0D6BC4"/>
</g>
<defs>
<clipPath id="clip0_7_58">
<rect width="68" height="68" fill="white"/>
</clipPath>
</defs>
</svg>
