<svg width="100" height="100" viewBox="0 0 100 100" fill="none" xmlns="http://www.w3.org/2000/svg">
<path d="M95 78.75V81.25C94.9974 83.5698 94.0746 85.7939 92.4343 87.4343C90.7939 89.0746 88.5698 89.9974 86.25 90H13.75C11.4302 89.9974 9.20611 89.0746 7.56574 87.4343C5.92537 85.7939 5.00265 83.5698 5 81.25V78.75C5 78.2575 5.097 77.7699 5.28545 77.3149C5.47391 76.86 5.75013 76.4466 6.09835 76.0984C6.44657 75.7501 6.85997 75.4739 7.31494 75.2855C7.76991 75.097 8.25754 75 8.75 75C9.24246 75 9.73009 75.097 10.1851 75.2855C10.64 75.4739 11.0534 75.7501 11.4017 76.0984C11.7499 76.4466 12.0261 76.86 12.2145 77.3149C12.403 77.7699 12.5 78.2575 12.5 78.75V81.25C12.5 81.5815 12.6317 81.8995 12.8661 82.1339C13.1005 82.3683 13.4185 82.5 13.75 82.5H86.25C86.5815 82.5 86.8995 82.3683 87.1339 82.1339C87.3683 81.8995 87.5 81.5815 87.5 81.25V78.75C87.5 77.7554 87.8951 76.8016 88.5983 76.0984C89.3016 75.3951 90.2554 75 91.25 75C92.2446 75 93.1984 75.3951 93.9017 76.0984C94.6049 76.8016 95 77.7554 95 78.75ZM19.165 51.88C22.9438 49.5423 27.3709 48.4737 31.8 48.83C33.65 48.93 35.5 49.2 37.3 49.64C37.1989 48.8281 36.8936 48.0551 36.4127 47.3932C35.9318 46.7312 35.2909 46.202 34.55 45.855C32.5763 44.9531 30.4109 44.5512 28.245 44.685C26.4056 44.7216 24.5912 45.1191 22.905 45.855C22.4644 46.0753 21.9848 46.2067 21.4934 46.2416C21.0021 46.2765 20.5086 46.2143 20.0413 46.0585C19.574 45.9027 19.142 45.6565 18.7698 45.3337C18.3977 45.011 18.0928 44.6181 17.8725 44.1775C17.6522 43.7369 17.5209 43.2573 17.4859 42.7659C17.451 42.2746 17.5132 41.7811 17.669 41.3138C17.8248 40.8465 18.071 40.4145 18.3938 40.0423C18.7165 39.6702 19.1094 39.3653 19.55 39.145C22.2025 37.9199 25.079 37.2544 28 37.19C31.4274 37.0075 34.8464 37.6793 37.95 39.145C40.2906 40.3951 42.209 42.3098 43.4636 44.6481C44.7181 46.9863 45.2527 49.6435 45 52.285V72.5C45.0371 73.4946 44.6777 74.4631 44.0006 75.1927C43.3236 75.9222 42.3846 76.3529 41.39 76.39C40.3954 76.4271 39.4269 76.0677 38.6973 75.3906C37.9678 74.7136 37.5371 73.7746 37.5 72.78C35.3765 74.2483 32.9711 75.2594 30.4363 75.7492C27.9015 76.2389 25.2926 76.1967 22.775 75.625C20.2953 74.9885 18.0577 73.6367 16.3405 71.7379C14.6234 69.8391 13.5027 67.4772 13.1179 64.9463C12.7331 62.4153 13.1012 59.8271 14.1765 57.5037C15.2517 55.1804 16.9865 53.2247 19.165 51.88V51.88ZM24.72 68.38C27.0967 68.656 29.5049 68.3444 31.7331 67.4727C33.9613 66.6009 35.9416 65.1956 37.5 63.38V57.5C35.5372 56.83 33.4911 56.4346 31.42 56.325C28.5987 56.0555 25.7646 56.6874 23.325 58.13C22.3517 58.6756 21.5651 59.5015 21.0675 60.5001C20.5698 61.4988 20.3842 62.6241 20.5346 63.7297C20.6851 64.8353 21.1647 65.87 21.9112 66.6994C22.6576 67.5287 23.6363 68.1143 24.72 68.38V68.38ZM55 72.5V20C55 19.5075 55.097 19.0199 55.2855 18.5649C55.4739 18.11 55.7501 17.6966 56.0984 17.3483C56.4466 17.0001 56.86 16.7239 57.3149 16.5355C57.7699 16.347 58.2575 16.25 58.75 16.25C59.2425 16.25 59.7301 16.347 60.1851 16.5355C60.64 16.7239 61.0534 17.0001 61.4016 17.3483C61.7499 17.6966 62.0261 18.11 62.2145 18.5649C62.403 19.0199 62.5 19.5075 62.5 20V43.285C64.9341 41.1858 68.0358 40.0213 71.25 40C75.55 40.3563 79.5362 42.3933 82.3442 45.6693C85.1522 48.9453 86.5555 53.1961 86.25 57.5C86.5555 61.8039 85.1522 66.0547 82.3442 69.3307C79.5362 72.6067 75.55 74.6437 71.25 75C68.0363 74.9761 64.9354 73.8119 62.5 71.715V72.5C62.5 72.9925 62.403 73.4801 62.2145 73.9351C62.0261 74.39 61.7499 74.8034 61.4016 75.1516C61.0534 75.4999 60.64 75.7761 60.1851 75.9645C59.7301 76.153 59.2425 76.25 58.75 76.25C58.2575 76.25 57.7699 76.153 57.3149 75.9645C56.86 75.7761 56.4466 75.4999 56.0984 75.1516C55.7501 74.8034 55.4739 74.39 55.2855 73.9351C55.097 73.4801 55 72.9925 55 72.5V72.5ZM63.75 57.5C63.4613 59.8137 64.0818 62.1491 65.4807 64.0144C66.8797 65.8798 68.948 67.1293 71.25 67.5C73.552 67.1293 75.6203 65.8798 77.0193 64.0144C78.4182 62.1491 79.0387 59.8137 78.75 57.5C79.0387 55.1863 78.4182 52.8509 77.0193 50.9856C75.6203 49.1202 73.552 47.8707 71.25 47.5C68.948 47.8707 66.8797 49.1202 65.4807 50.9856C64.0818 52.8509 63.4613 55.1863 63.75 57.5Z" fill="#0D6BC4"/>
</svg>
